SplineFontDB: 3.2
FontName: Pulido
FullName: Artefactos de pulido
FamilyName: Pulido
Weight: Regular
Copyright: Copyright (c) 2025, fotoliptofono (ruvaldese),\nDedicated to S.M.G.C., and 300 Aniversary of Joaquin Ibarra (Spanish printer, 1725-1785)\nThis Font Software is licensed under the SIL Open Font License, Version 1.1.
UComments: "2025-5-5: Created with FontForge (http://fontforge.org)"
Version: 0.2
ItalicAngle: 0
UnderlinePosition: -100
UnderlineWidth: 50
Ascent: 800
Descent: 200
InvalidEm: 0
LayerCount: 2
Layer: 0 0 "Atr+AOEA-s" 1
Layer: 1 0 "Fore" 0
XUID: [1021 486 773142286 13678]
StyleMap: 0x0040
FSType: 0
OS2Version: 0
OS2_WeightWidthSlopeOnly: 0
OS2_UseTypoMetrics: 1
CreationTime: 1746420100
ModificationTime: 1752962225
PfmFamily: 17
TTFWeight: 400
TTFWidth: 5
LineGap: 90
VLineGap: 0
OS2TypoAscent: 0
OS2TypoAOffset: 1
OS2TypoDescent: 0
OS2TypoDOffset: 1
OS2TypoLinegap: 90
OS2WinAscent: 0
OS2WinAOffset: 1
OS2WinDescent: 0
OS2WinDOffset: 1
HheadAscent: 0
HheadAOffset: 1
HheadDescent: 0
HheadDOffset: 1
OS2FamilyClass: 2050
OS2Vendor: 'PfEd'
MarkAttachClasses: 1
DEI: 91125
LangName: 1033
Encoding: UnicodeBmp
UnicodeInterp: none
NameList: AGL For New Fonts
DisplaySize: -48
AntiAlias: 1
FitToEm: 0
WinInfo: 0 27 7
BeginPrivate: 0
EndPrivate
TeXData: 1 0 0 346030 173015 115343 554813 1048576 115343 783286 444596 497025 792723 393216 433062 380633 303038 157286 324010 404750 52429 2506097 1059062 262144
BeginChars: 65536 68

StartChar: a
Encoding: 97 97 0
Width: 550
Flags: W
HStem: 54.6875 41.5127<157.076 378.59> 296.512 39.1973<234.521 435.941> 303.25 39.7188<159.122 435.168> 488.036 41.7627<146.903 373.222>
VStem: 20.7695 43.251<397.168 428.849> 21.8789 94.249<128.86 262.266> 436.654 102.334<55.125 102.275 138.54 296.512 335.709 427.575>
LayerCount: 2
Fore
SplineSet
280.43359375 529.798828125 m 0xda
 461.70703125 529.798828125 541.666992188 459.237304688 538.98828125 337.32421875 c 2
 538.98828125 55.125 l 1
 436.654296875 55.125 l 1
 436.654296875 102.275390625 l 1
 407.418945312 71.4755859375 353.959960938 58.1142578125 263.03515625 54.6875 c 0
 55.7548828125 46.875 22.46875 133.360351562 21.87890625 180.505859375 c 0
 20.59765625 282.892578125 94.8408203125 336.565429688 248.712890625 342.96875 c 0xb6
 322.431640625 346.036132812 404.315429688 338.120117188 436.72265625 335.708984375 c 1
 436.72265625 337.32421875 l 2
 436.208984375 418.724609375 407.563476562 488.036132812 275.00390625 488.036132812 c 0
 178.247070312 488.036132812 78.4931640625 459.720703125 64.0205078125 388.703125 c 1
 20.76953125 397.16796875 l 1
 24.6796875 475.962890625 139.393554688 529.798828125 280.43359375 529.798828125 c 0xda
251.921875 303.25 m 0
 153.978515625 303.25 116.127929688 267.799804688 116.127929688 195.3125 c 0
 116.127929688 122.825195312 158.666015625 96.2001953125 256.609375 96.2001953125 c 0
 418.084960938 96.2001953125 426.66796875 161.724609375 435.94140625 163.974609375 c 1
 435.94140625 296.51171875 l 1xd6
 317.626953125 304.446289062 263.942382812 302.836914062 254.265625 303.212890625 c 1
 254.265625 303.1796875 l 1
 253.474609375 303.185546875 252.716796875 303.25 251.921875 303.25 c 0
123.876953125 530.775390625 m 1024
438.048828125 127.41796875 m 1025
438.048828125 58.80078125 m 1025
540.8046875 291 m 1024
431.00390625 306 m 1025
EndSplineSet
Validated: 33
EndChar

StartChar: e
Encoding: 101 101 1
Width: 550
Flags: W
HStem: 54 64.9023<189.486 382.796> 252.902 53.0977<111.299 430.999> 488 40<201.979 268.999>
VStem: 430.999 109.801<306 380.591>
LayerCount: 2
Fore
SplineSet
538.983398438 337.32421875 m 1026
436.649414062 102.275390625 m 1025
436.717773438 337.32421875 m 1026
254.260742188 303.212890625 m 1
 254.260742188 303.1796875 l 1
 253.469726562 303.185546875 252.711914062 303.25 251.916992188 303.25 c 1024
223.13671875 527.344726562 m 1025
279.383789062 53.69140625 m 1024
274.799804688 528 m 0
 421.708007812 528 540.799804688 421.891601562 540.799804688 291 c 0
 540.71875 278.603515625 539.546875 266.232421875 537.293945312 254 c 1
 404.861328125 254 245.984375 254.41015625 111.298828125 252.90234375 c 1
 111.298828125 252.90234375 124.999023438 124.90234375 268.999023438 118.90234375 c 1
 398.287109375 104.084960938 452.971679688 153.700195312 488.334960938 220 c 1
 528.254882812 220 l 1
 493.477539062 121.317382812 390.888671875 54.1279296875 274.799804688 54 c 0
 127.891601562 54 8.7998046875 160.108398438 8.7998046875 291 c 0
 8.7998046875 421.891601562 127.891601562 528 274.799804688 528 c 0
268.999023438 488 m 1
 124.999023438 482 111.298828125 306 111.298828125 306 c 1
 430.999023438 306 l 1
 436.999023438 514 268.999023438 488 268.999023438 488 c 1
EndSplineSet
Validated: 35
EndChar

StartChar: i
Encoding: 105 105 2
Width: 200
Flags: W
HStem: 596.876 101.562<56.6753 145.86>
VStem: 48.1426 103.906<54.6885 527.345 606.25 689.064>
LayerCount: 2
Fore
SplineSet
73.7138671875 342.96875 m 1024
100.004882812 488.036132812 m 1024
105.434570312 529.798828125 m 1024
88.0361328125 54.6875 m 1024
81.6103515625 96.2001953125 m 1024
79.2666015625 303.212890625 m 1
 79.2666015625 303.1796875 l 1
 78.4755859375 303.185546875 77.7177734375 303.25 76.9228515625 303.25 c 1024
98.2939453125 530.416015625 m 1024
98.2939453125 59.748046875 m 1024
104.922851562 99.521484375 m 1024
104.922851562 497.26953125 m 1024
101.267578125 698.438476562 m 0
 131.450195312 698.438476562 155.955078125 675.68359375 155.955078125 647.657226562 c 0
 155.955078125 619.629882812 131.450195312 596.875976562 101.267578125 596.875976562 c 0
 71.0849609375 596.875976562 46.580078125 619.629882812 46.580078125 647.657226562 c 0
 46.580078125 675.68359375 71.0849609375 698.438476562 101.267578125 698.438476562 c 0
48.142578125 527.344726562 m 1
 152.048828125 527.344726562 l 1
 152.048828125 54.6884765625 l 1
 48.142578125 54.6884765625 l 1
 48.142578125 527.344726562 l 1
109.819335938 95.455078125 m 1024
104.389648438 53.69140625 m 1024
94.0048828125 118.90234375 m 1025
99.8056640625 54 m 1024
99.8056640625 528 m 1024
94.0048828125 488 m 1025
EndSplineSet
Validated: 3
EndChar

StartChar: o
Encoding: 111 111 3
Width: 550
Flags: W
HStem: 59.748 39.7734<205.281 354.242> 497.27 33.1465<212.376 347.209>
VStem: 7.01953 97.2266<203.575 385.616> 455.59 83.9688<203.575 385.616>
LayerCount: 2
Fore
SplineSet
436.71875 335.708984375 m 1
 436.71875 337.32421875 l 1026
20.765625 397.16796875 m 1025
436.650390625 102.275390625 m 1025
435.9375 296.51171875 m 1025
273.2890625 530.416015625 m 0
 420.247070312 530.416015625 539.55859375 424.966796875 539.55859375 295.08203125 c 0
 539.55859375 165.198242188 420.247070312 59.748046875 273.2890625 59.748046875 c 0
 126.331054688 59.748046875 7.01953125 165.197265625 7.01953125 295.08203125 c 0
 7.01953125 424.965820312 126.331054688 530.416015625 273.2890625 530.416015625 c 0
279.91796875 497.26953125 m 0
 182.961914062 497.26953125 104.24609375 408.157226562 104.24609375 298.396484375 c 0
 104.24609375 188.634765625 182.961914062 99.521484375 279.91796875 99.521484375 c 0
 376.874023438 99.521484375 455.58984375 188.634765625 455.58984375 298.396484375 c 0
 455.58984375 408.157226562 376.874023438 497.26953125 279.91796875 497.26953125 c 0
438.044921875 528.228515625 m 1025
438.044921875 58.80078125 m 1025
279.384765625 53.69140625 m 1024
269 118.90234375 m 1025
269 488 m 1025
EndSplineSet
Validated: 3
EndChar

StartChar: u
Encoding: 117 117 4
Width: 550
Flags: W
HStem: 53.6914 41.7637<187.677 409.976> 508.229 20G<438.045 540.16>
VStem: 20.8301 103.043<174.255 528.365> 123.164 0.708984<528.365 530.522> 438.045 102.115<58.8008 80.6152 118.417 528.229>
LayerCount: 2
Fore
SplineSet
538.984375 337.32421875 m 2
 538.984375 55.125 l 1
 436.650390625 55.125 l 1025xc8
20.765625 397.16796875 m 1025
435.9375 163.974609375 m 1025
539.55859375 295.08203125 m 1024
279.91796875 99.521484375 m 1024
327.043945312 54.6884765625 m 1
 223.137695312 54.6884765625 l 1025
123.873046875 530.775390625 m 0xd8
 123.926757812 531.510742188 123.938476562 509.096679688 123.873046875 440.23046875 c 0
 120.485351562 167.890625 135.067382812 90.767578125 284.814453125 95.455078125 c 0
 340.534179688 97.19921875 397.18359375 106.40625 438.044921875 127.41796875 c 1
 438.044921875 528.228515625 l 1
 540.16015625 528.228515625 l 1
 540.16015625 58.80078125 l 1
 438.044921875 58.80078125 l 1
 438.044921875 80.615234375 l 1
 394.146484375 63.4560546875 339.170898438 55.2841796875 279.384765625 53.69140625 c 0
 96.67578125 48.8232421875 20.830078125 120.788085938 20.830078125 246.166015625 c 2
 20.830078125 528.365234375 l 1xe8
 123.1640625 528.365234375 l 1
 123.1640625 318.024414062 123.7109375 528.568359375 123.873046875 530.775390625 c 0xd8
540.80078125 291 m 0
 540.719726562 278.603515625 539.547851562 266.232421875 537.294921875 254 c 1025
528.255859375 220 m 1025
EndSplineSet
Validated: 35
EndChar

StartChar: b
Encoding: 98 98 5
Width: 1000
Flags: HO
LayerCount: 2
Fore
SplineSet
229.810546875 722.947265625 m 1
 329.24609375 732.947265625 l 1
 329.24609375 476.458984375 l 1
 376.815429688 511.216796875 436.569335938 530.2890625 498.2890625 530.416015625 c 0
 645.345703125 530.416015625 764.55859375 425.052734375 764.55859375 295.08203125 c 0
 764.55859375 165.111328125 645.345703125 59.748046875 498.2890625 59.748046875 c 0
 436.569335938 59.875 360.764648438 67.8984375 329.24609375 73.7666015625 c 1
 229.810546875 59.748046875 l 1
 229.810546875 722.947265625 l 1
504.91796875 497.26953125 m 0
 418.509765625 504.30078125 353.823242188 467.41796875 329.24609375 431.66796875 c 1
 329.24609375 132.66796875 l 2
 328.909179688 106.151367188 385.009765625 99.521484375 504.91796875 99.521484375 c 0
 601.939453125 99.521484375 656.000976562 188.560546875 656 298.396484375 c 0
 656 408.23046875 601.619140625 489.400390625 504.91796875 497.26953125 c 0
EndSplineSet
EndChar

StartChar: c
Encoding: 99 99 6
Width: 464
Flags: W
HStem: 59.748 39.7734<204.973 366.509> 497.27 33.1465<212.07 356.53>
VStem: 6.74219 97.2266<203.54 385.651>
LayerCount: 2
Fore
SplineSet
273.01171875 530.416015625 m 0
 338.637695312 530.412109375 415.150390625 508.989257812 464 470.2578125 c 1
 400.7265625 454.732421875 l 1
 369.955078125 482.123046875 318.784179688 497.09375 279.640625 497.26953125 c 0
 182.620117188 497.26953125 103.969726562 408.231445312 103.96875 298.396484375 c 0
 103.96875 188.560546875 182.620117188 99.521484375 279.640625 99.521484375 c 0
 314.975585938 99.5322265625 362.686523438 111.604492188 391.8671875 134.1640625 c 1
 459.78125 116.72265625 l 1
 411.499023438 79.9921875 336.716796875 59.77734375 273.01171875 59.748046875 c 0
 125.955078125 59.748046875 6.7421875 165.110351562 6.7421875 295.08203125 c 0
 6.7421875 425.053710938 125.955078125 530.416015625 273.01171875 530.416015625 c 0
EndSplineSet
Validated: 1
EndChar

StartChar: k
Encoding: 107 107 7
Width: 550
Flags: W
HStem: 717.855 20G<5.09961 111.532>
VStem: 5.09961 106.433<52.584 243.52 370.283 722.855>
LayerCount: 2
Fore
SplineSet
111.532226562 737.85546875 m 1
 111.532226562 370.283203125 l 1
 437.40625 516.712890625 l 1
 534.126953125 525.33984375 l 1
 118.875976562 328.765625 l 1
 541.35546875 75.73046875 l 1
 423.866210938 54.27734375 l 1
 111.532226562 243.51953125 l 1
 111.532226562 52.583984375 l 1
 5.099609375 52.583984375 l 1
 5.099609375 722.85546875 l 1
 111.532226562 737.85546875 l 1
EndSplineSet
Validated: 1
EndChar

StartChar: d
Encoding: 100 100 8
Width: 550
Flags: W
HStem: 59.748 39.7734<205.251 370.03> 497.27 33.1465<212.347 361.833>
VStem: 7.01953 97.2266<203.54 385.651> 431.943 107.119<69.5371 106.166 147.43 448.704 483.998 722.947>
LayerCount: 2
Fore
SplineSet
431.943359375 722.947265625 m 1
 539.0625 732.947265625 l 1
 539.0625 308.69140625 l 2
 539.376953125 304.16015625 539.541992188 299.622070312 539.55859375 295.08203125 c 0
 539.541992188 290.541992188 539.376953125 286.00390625 539.0625 281.47265625 c 2
 539.0625 69.537109375 l 1
 431.943359375 59.537109375 l 1
 431.943359375 106.166015625 l 1
 386.065429688 76.0458984375 330.440429688 59.771484375 273.2890625 59.748046875 c 0
 126.232421875 59.748046875 7.01953125 165.110351562 7.01953125 295.08203125 c 0
 7.01953125 425.053710938 126.232421875 530.416015625 273.2890625 530.416015625 c 0
 330.440429688 530.392578125 386.065429688 514.118164062 431.943359375 483.998046875 c 1
 431.943359375 722.947265625 l 1
279.91796875 497.26953125 m 0
 182.897460938 497.26953125 104.247070312 408.231445312 104.24609375 298.396484375 c 0
 104.24609375 188.560546875 182.897460938 99.521484375 279.91796875 99.521484375 c 0
 342.626953125 99.55078125 431.943359375 129.873046875 431.943359375 198.8828125 c 2
 431.943359375 396.99609375 l 2
 431.943359375 466.2265625 342.79296875 497.052734375 279.91796875 497.26953125 c 0
EndSplineSet
Validated: 1
EndChar

StartChar: f
Encoding: 102 102 9
Width: 356
Flags: W
HStem: 474.584 54.6328<14.0352 89.25 193.33 405.959> 700.029 41.6992<258.08 397.335>
VStem: 89.25 103.906<49.9375 474.584 529.217 620.182>
LayerCount: 2
Fore
SplineSet
300.208984375 741.728515625 m 0
 418.49609375 741.9765625 469.126953125 725.999023438 524 625.169921875 c 1
 449.658203125 609.767578125 l 1
 411.725585938 702.227539062 350.596679688 701.29296875 311.759765625 700.029296875 c 0
 217.122070312 687.83203125 195.091796875 595.249023438 193.330078125 529.216796875 c 1
 405.958984375 529.216796875 l 1
 405.958984375 474.583984375 l 1
 193.15625 474.583984375 l 1
 193.15625 49.9375 l 1
 89.25 49.9375 l 1
 89.25 474.583984375 l 1
 14.03515625 474.583984375 l 1
 14.03515625 529.216796875 l 1
 90.08203125 529.216796875 l 1
 93.8115234375 654.837890625 184.387695312 741.484375 300.208984375 741.728515625 c 0
EndSplineSet
Validated: 33
EndChar

StartChar: g
Encoding: 103 103 10
Width: 400
Flags: W
HStem: -131.117 30.8789<160.803 233.044> 70.7832 40.3809<156.078 239.177> 474.584 40.3809<161.669 236.227>
VStem: -0.709961 133.018<-56.4408 48.5693> 20.6689 111.639<132.635 193.177> 30.1689 104.514<292.06 434.069> 262.948 140.143<-56.4408 47.8329> 262.948 106.889<293.869 434.859>
LayerCount: 2
Fore
SplineSet
200.002929688 514.96484375 m 0xe4
 237.651367188 514.948242188 274.227539062 503.47265625 303.981445312 482.33984375 c 1
 388.428710938 511.494140625 l 1
 413.274414062 449.67578125 l 1
 352.077148438 428.548828125 l 1
 363.741210938 407.057617188 369.8203125 383.384765625 369.836914062 359.3828125 c 0
 369.396484375 174.299804688 132.303710938 238.90234375 132.307617188 163.419921875 c 0xe9
 132.30859375 134.559570312 181.758789062 111.1640625 242.758789062 111.1640625 c 0
 342.50390625 112.974609375 400.973632812 64.93359375 403.090820312 0.712890625 c 0
 403.091796875 -72.0947265625 312.697265625 -131.1171875 201.190429688 -131.1171875 c 0
 89.68359375 -131.1171875 -0.7109375 -72.0947265625 -0.7099609375 0.712890625 c 0xf2
 -0.5849609375 34.056640625 18.8876953125 66.130859375 53.7841796875 90.474609375 c 1
 32.3486328125 107.2109375 20.7646484375 127.326171875 20.6689453125 147.98046875 c 0xe8
 20.77734375 182.098632812 52.125 213.758789062 103.541992188 231.681640625 c 1
 57.7099609375 260.655273438 30.2939453125 308.37109375 30.1689453125 359.3828125 c 0
 30.1689453125 445.30859375 106.206054688 514.96484375 200.002929688 514.96484375 c 0xe4
198.815429688 474.583984375 m 0
 163.395507812 474.583984375 134.682617188 427.791992188 134.682617188 370.0703125 c 0xe5
 134.682617188 312.350585938 163.396484375 265.55859375 198.815429688 265.55859375 c 0
 234.234375 265.55859375 262.947265625 312.350585938 262.948242188 370.0703125 c 0
 262.948242188 427.791992188 234.235351562 474.583984375 198.815429688 474.583984375 c 0
197.627929688 70.783203125 m 0
 161.552734375 70.783203125 132.307617188 32.4990234375 132.307617188 -14.7265625 c 0
 132.306640625 -61.953125 161.551757812 -100.23828125 197.627929688 -100.23828125 c 0
 233.703125 -100.23828125 262.948242188 -61.953125 262.948242188 -14.7265625 c 0xf2
 262.947265625 32.4990234375 233.703125 70.783203125 197.627929688 70.783203125 c 0
EndSplineSet
Validated: 33
EndChar

StartChar: uni0261
Encoding: 609 609 11
Width: 550
Flags: W
HStem: -174.408 36.9492<176.313 354.227> 59.748 39.7734<205.251 354.081> 497.27 33.1465<212.347 346.773>
VStem: 7.01953 97.2266<203.54 385.651> 440.74 103.906<-47.4263 112.18 177.842 417.962>
LayerCount: 2
Fore
SplineSet
273.2890625 530.416015625 m 1
 430.1328125 525.6171875 409.913085938 481.931640625 544.646484375 524.677734375 c 1
 544.646484375 52.021484375 l 1
 543.99609375 52.021484375 l 1
 543.326171875 -127.571289062 412.19140625 -172.165039062 269.8984375 -174.408203125 c 0
 123.12890625 -176.721679688 34.3271484375 -131.7890625 8.103515625 -67.6484375 c 1
 93.7265625 -51.94921875 l 1
 103.713867188 -110.689453125 220.698242188 -138.72265625 264.28515625 -137.458984375 c 0
 388.55859375 -135.374023438 430.188476562 -78.0791015625 440.740234375 52.021484375 c 1
 440.740234375 112.1796875 l 1
 393.360351562 78.2763671875 334.251953125 59.767578125 273.2890625 59.748046875 c 0
 126.232421875 59.748046875 7.01953125 165.110351562 7.01953125 295.08203125 c 0
 7.01953125 425.053710938 126.232421875 530.416015625 273.2890625 530.416015625 c 1
279.91796875 497.26953125 m 0
 182.897460938 497.26953125 104.247070312 408.231445312 104.24609375 298.396484375 c 0
 104.24609375 188.560546875 182.897460938 99.521484375 279.91796875 99.521484375 c 0
 349.640625 99.552734375 412.748046875 146.260742188 440.740234375 218.55078125 c 1
 440.740234375 376.939453125 l 1
 413.096679688 449.739257812 349.9140625 497.012695312 279.91796875 497.26953125 c 0
EndSplineSet
Validated: 33
EndChar

StartChar: h
Encoding: 104 104 12
Width: 550
Flags: W
HStem: 497.27 33.1465<210.747 345.752>
VStem: 5.40039 99.7617<51.7812 392.99 477.545 723.242> 436.584 102.971<54.1562 386.684>
LayerCount: 2
Fore
SplineSet
105.162109375 733.2421875 m 1
 105.162109375 477.544921875 l 1
 151.0078125 510.58203125 209.518554688 530.416015625 273.28515625 530.416015625 c 0
 420.340820312 530.416015625 539.5546875 425.052734375 539.5546875 295.08203125 c 0
 539.5546875 293.942382812 539.474609375 292.8203125 539.45703125 291.685546875 c 2
 539.439453125 291.685546875 l 1
 539.439453125 54.15625 l 1
 436.412109375 54.15625 l 1
 436.412109375 292.28125 l 1
 436.455078125 292.28125 l 2
 436.494140625 293.529296875 436.583984375 294.756835938 436.583984375 296.021484375 c 0
 436.583007812 405.85546875 376.934570312 497.26953125 279.9140625 497.26953125 c 0
 188.98828125 497.26953125 114.200195312 419.065429688 105.162109375 318.83203125 c 0
 104.555664062 312.11328125 104.2421875 305.295898438 104.2421875 298.396484375 c 0
 104.2421875 291.49609375 104.555664062 284.6796875 105.162109375 277.9609375 c 2
 105.162109375 112.619140625 l 1
 105.162109375 51.78125 l 1
 5.400390625 51.78125 l 1
 5.400390625 723.2421875 l 1
 105.162109375 733.2421875 l 1
EndSplineSet
Validated: 1
EndChar

StartChar: j
Encoding: 106 106 13
Width: 427
Flags: W
HStem: -164.985 41.6992<96.6645 235.906> 596.624 101.562<305.623 394.818>
VStem: 295.533 109.375<-44.3779 526.806 606.713 688.098>
LayerCount: 2
Fore
SplineSet
350.220703125 698.186523438 m 0
 380.422851562 698.186523438 404.908203125 675.451171875 404.908203125 647.405273438 c 0
 404.908203125 619.360351562 380.422851562 596.624023438 350.220703125 596.624023438 c 0
 320.017578125 596.624023438 295.533203125 619.360351562 295.533203125 647.405273438 c 0
 295.533203125 675.451171875 320.017578125 698.186523438 350.220703125 698.186523438 c 0
300.84375 526.805664062 m 1
 404.75 526.805664062 l 1
 404.75 54.1494140625 l 1
 404.099609375 54.1494140625 l 1
 403.4296875 -75.0556640625 311.645507812 -164.737304688 193.791015625 -164.985351562 c 0
 75.5029296875 -165.233398438 24.873046875 -149.255859375 -30 -48.4267578125 c 1
 44.341796875 -33.0244140625 l 1
 82.2734375 -125.483398438 143.403320312 -124.549804688 182.240234375 -123.286132812 c 0
 280.046875 -110.680664062 300.369140625 -12.1259765625 300.84375 54.1494140625 c 2
 300.84375 526.805664062 l 1
EndSplineSet
Validated: 33
EndChar

StartChar: p
Encoding: 112 112 14
Width: 550
Flags: W
HStem: -146.663 21G<7.69629 114.876> 55.8682 33.1465<185.026 334.596> 486.763 39.7734<176.825 341.696>
VStem: 7.69629 107.18<-136.663 102.286 137.58 438.854 480.118 516.747> 442.758 97.2812<200.634 382.744>
LayerCount: 2
Fore
SplineSet
114.875976562 -136.663085938 m 1
 7.6962890625 -146.663085938 l 1
 7.6962890625 277.592773438 l 2
 7.3828125 282.124023438 7.216796875 286.662109375 7.2001953125 291.202148438 c 0
 7.216796875 295.7421875 7.3828125 300.280273438 7.6962890625 304.811523438 c 2
 7.6962890625 516.747070312 l 1
 114.875976562 526.747070312 l 1
 114.875976562 480.118164062 l 1
 160.779296875 510.23828125 216.436523438 526.512695312 273.619140625 526.536132812 c 0
 420.758789062 526.536132812 540.0390625 421.172851562 540.0390625 291.202148438 c 0
 540.0390625 161.23046875 420.758789062 55.8681640625 273.619140625 55.8681640625 c 0
 216.436523438 55.8916015625 160.779296875 72.166015625 114.875976562 102.286132812 c 1
 114.875976562 -136.663085938 l 1
266.987304688 89.0146484375 m 0
 364.0625 89.0146484375 442.756835938 178.052734375 442.7578125 287.887695312 c 0
 442.7578125 397.72265625 364.0625 486.762695312 266.987304688 486.762695312 c 0
 204.243164062 486.733398438 114.875976562 456.411132812 114.875976562 387.401367188 c 2
 114.875976562 189.288085938 l 2
 114.875976562 120.057617188 204.077148438 89.2314453125 266.987304688 89.0146484375 c 0
EndSplineSet
Validated: 1
EndChar

StartChar: l
Encoding: 108 108 15
Width: 200
Flags: W
HStem: 717.855 20G<46.5801 154.481>
VStem: 46.5801 107.901<52.583 722.855>
LayerCount: 2
Fore
SplineSet
46.580078125 722.85546875 m 1
 154.481445312 737.85546875 l 1
 154.481445312 52.5830078125 l 1
 46.580078125 52.5830078125 l 1
 46.580078125 722.85546875 l 1
EndSplineSet
Validated: 1
EndChar

StartChar: m
Encoding: 109 109 16
Width: 965
Flags: W
HStem: 497.27 33.1465<223.865 357.051 643.503 765.801>
VStem: 18.2803 99.7617<51.7812 392.989 477.559 519> 449.444 102.898<54.1562 394.869> 843.747 102.971<54.1562 386.684>
LayerCount: 2
Fore
SplineSet
276.145507812 530.416015625 m 0
 368.62890625 530.416015625 454.02734375 488.724609375 504.694335938 425.466796875 c 1
 535.225585938 463.861328125 598.53515625 531.299804688 687.249023438 530.416015625 c 0
 834.3046875 530.416015625 946.717773438 425.051757812 946.717773438 295.08203125 c 0
 946.717773438 293.942382812 946.638671875 292.821289062 946.620117188 291.685546875 c 2
 946.602539062 291.685546875 l 1
 946.602539062 54.15625 l 1
 843.575195312 54.15625 l 1
 843.575195312 292.28125 l 1
 843.618164062 292.28125 l 2
 843.658203125 293.529296875 843.747070312 294.756835938 843.747070312 296.021484375 c 0
 843.747070312 405.85546875 800.897460938 497.016601562 703.877929688 497.26953125 c 0
 588.37890625 497.5703125 557.772460938 365.68359375 552.342773438 297.41796875 c 0
 552.352539062 296.63671875 552.415039062 295.865234375 552.415039062 295.08203125 c 0
 552.415039062 293.942382812 552.3359375 292.821289062 552.317382812 291.685546875 c 2
 552.299804688 291.685546875 l 1
 552.299804688 54.15625 l 1
 449.272460938 54.15625 l 1
 449.272460938 292.28125 l 1
 449.315429688 292.28125 l 2
 449.35546875 293.529296875 449.444335938 294.756835938 449.444335938 296.021484375 c 0
 449.444335938 405.85546875 389.793945312 497.26953125 292.774414062 497.26953125 c 0
 201.849609375 497.26953125 127.060546875 419.064453125 118.022460938 318.83203125 c 0
 117.44921875 312.478515625 117.16015625 306.03125 117.127929688 299.515625 c 2
 117.122070312 298.396484375 l 2
 117.122070312 291.49609375 117.436523438 284.6796875 118.041992188 277.9609375 c 2
 118.041992188 112.619140625 l 1
 118.041992188 51.78125 l 1
 18.2802734375 51.78125 l 1
 18.2802734375 519 l 1
 118.041992188 529 l 1
 118.041992188 477.55859375 l 1
 163.881835938 510.587890625 212.388671875 530.416015625 276.145507812 530.416015625 c 0
EndSplineSet
Validated: 33
EndChar

StartChar: n
Encoding: 110 110 17
Width: 550
Flags: W
HStem: 497.27 33.1465<210.747 345.752>
VStem: 5.40039 99.7617<51.7812 392.99 477.545 519> 436.584 102.971<54.1562 386.684>
LayerCount: 2
Fore
SplineSet
105.162109375 529 m 1
 105.162109375 477.544921875 l 1
 151.008789062 510.58203125 209.518554688 530.416015625 273.28515625 530.416015625 c 0
 420.341796875 530.416015625 539.5546875 425.052734375 539.5546875 295.08203125 c 0
 539.5546875 293.942382812 539.475585938 292.821289062 539.45703125 291.685546875 c 2
 539.439453125 291.685546875 l 1
 539.439453125 54.15625 l 1
 436.412109375 54.15625 l 1
 436.412109375 292.28125 l 1
 436.455078125 292.28125 l 2
 436.495117188 293.529296875 436.583984375 294.756835938 436.583984375 296.021484375 c 0
 436.583984375 405.85546875 376.934570312 497.26953125 279.9140625 497.26953125 c 0
 188.98828125 497.26953125 114.200195312 419.065429688 105.162109375 318.83203125 c 0
 104.556640625 312.11328125 104.2421875 305.296875 104.2421875 298.396484375 c 0
 104.2421875 291.49609375 104.556640625 284.6796875 105.162109375 277.9609375 c 2
 105.162109375 112.619140625 l 1
 105.162109375 51.78125 l 1
 5.400390625 51.78125 l 1
 5.400390625 519 l 1
 105.162109375 529 l 1
EndSplineSet
Validated: 1
EndChar

StartChar: s
Encoding: 115 115 18
Width: 1000
Flags: H
LayerCount: 2
Fore
SplineSet
507.7421875 528.470703125 m 0
 655.163085938 527.21875 726.20703125 474.697265625 726.20703125 474.697265625 c 1
 698.903320312 434.450195312 l 1
 698.903320312 434.450195312 652.090820312 508.346679688 510.365234375 500.416015625 c 0
 393.557617188 493.879882812 372.224609375 444.909179688 375.852539062 418.234375 c 0
 379.404296875 392.125 418.88671875 375.540039062 519.76171875 368.17578125 c 0
 620.63671875 360.811523438 736.055664062 305.307617188 733.833007812 208.377929688 c 0
 731.453125 104.637695312 638.663085938 50.466796875 487.94140625 50.466796875 c 0
 307.658203125 47.2529296875 268.153320312 109.1796875 268.153320312 109.1796875 c 1
 296.586914062 174.875 l 1
 296.586914062 174.875 317.603515625 105.629882812 478.662109375 89.720703125 c 0
 544.821289062 83.185546875 615.012695312 112.1015625 610.697265625 172.704101562 c 0
 606.381835938 233.306640625 545.012695312 250.271484375 484.712890625 256.828125 c 0
 388.426757812 263.384765625 281.498046875 305.173828125 283.271484375 395.965820312 c 0
 285.500976562 510.104492188 389.426757812 529.475585938 507.7421875 528.470703125 c 0
EndSplineSet
EndChar

StartChar: q
Encoding: 113 113 19
Width: 550
Flags: W
HStem: 485.173 39.7734<195.608 433.494>
VStem: 4.80957 108.559<197.617 381.154> 440.123 99.4346<-138.253 108.235 129.874 473.525>
LayerCount: 2
Fore
SplineSet
539.557617188 -138.252929688 m 1
 440.122070312 -148.252929688 l 1
 440.122070312 108.235351562 l 1
 392.553710938 73.4775390625 332.799804688 54.404296875 271.079101562 54.2783203125 c 0
 124.0234375 54.2783203125 4.8095703125 159.640625 4.8095703125 289.612304688 c 0
 4.8095703125 419.583007812 124.0234375 524.946289062 271.079101562 524.946289062 c 0
 332.799804688 524.819335938 408.604492188 516.794921875 440.123046875 510.926757812 c 1
 539.557617188 524.946289062 l 1
 539.557617188 -138.252929688 l 1
264.450195312 87.4248046875 m 0
 350.859375 80.3935546875 415.545898438 117.276367188 440.123046875 153.026367188 c 1
 440.122070312 452.026367188 l 2
 440.459960938 478.54296875 384.358398438 485.172851562 264.450195312 485.172851562 c 0
 167.4296875 485.172851562 113.368164062 396.133789062 113.368164062 286.297851562 c 0
 113.369140625 176.463867188 167.75 95.29296875 264.450195312 87.4248046875 c 0
EndSplineSet
Validated: 33
EndChar

StartChar: r
Encoding: 114 114 20
Width: 499
Flags: W
HStem: 497.27 33.1465<245.786 379.564>
VStem: 40.4395 99.7617<51.7812 392.99 477.545 519>
LayerCount: 2
Fore
SplineSet
308.32421875 530.416015625 m 0
 385.70703125 530.416015625 455.349609375 501.215820312 504 454.6328125 c 1
 425.5546875 443.12109375 l 1
 398.717773438 476.588867188 361.069335938 497.26953125 314.953125 497.26953125 c 0
 224.02734375 497.26953125 149.239257812 419.065429688 140.201171875 318.83203125 c 0
 139.595703125 312.11328125 139.28125 305.296875 139.28125 298.396484375 c 0
 139.28125 291.49609375 139.595703125 284.6796875 140.201171875 277.9609375 c 2
 140.201171875 112.619140625 l 1
 140.201171875 51.78125 l 1
 40.439453125 51.78125 l 1
 40.439453125 519 l 1
 140.201171875 529 l 1
 140.201171875 477.544921875 l 1
 186.047851562 510.58203125 244.557617188 530.416015625 308.32421875 530.416015625 c 0
EndSplineSet
Validated: 1
EndChar

StartChar: t
Encoding: 116 116 21
Width: 599
Flags: W
HStem: 53.9385 39.5605<245.816 462.404> 477.116 51.2295<176.282 592.467>
VStem: 59.7725 114.49<174.326 477.116>
LayerCount: 2
Fore
SplineSet
176.466796875 571.73046875 m 1
 176.282226562 528.345703125 l 1
 592.466796875 528.345703125 l 1
 592.466796875 477.116210938 l 1
 175.89453125 477.116210938 l 1
 174.262695312 261.83203125 l 2
 174.786132812 198.956054688 197.177734375 105.45703125 304.948242188 93.4990234375 c 0
 347.741210938 92.2998046875 430.524414062 102.797851562 549.451171875 131.6953125 c 1
 592.466796875 105.698242188 l 1
 413.002929688 55.5791015625 422.557617188 53.703125 292.220703125 53.9384765625 c 0
 162.360351562 54.173828125 61.2265625 139.254882812 60.4892578125 261.83203125 c 1
 59.7724609375 261.83203125 l 1
 59.7724609375 477.116210938 l 1
 59.7724609375 477.116210938 26.705078125 475.205078125 30.2685546875 478.885742188 c 0
 33.8310546875 482.56640625 176.466796875 571.73046875 176.466796875 571.73046875 c 1
EndSplineSet
Validated: 33
EndChar

StartChar: v
Encoding: 118 118 22
Width: 550
Flags: W
HStem: 508.3 20G<16.533 116.283 499.538 543.149>
LayerCount: 2
Fore
SplineSet
106.28125 528.299804688 m 1
 302.421875 136.103515625 l 1
 499.538085938 522.663085938 l 1
 553.1640625 529.7578125 l 1
 321.6640625 67.44921875 l 1
 220.645507812 52.16015625 l 1
 3.0400390625 505.29296875 l 1
 106.28125 528.299804688 l 1
EndSplineSet
Validated: 1
EndChar

StartChar: x
Encoding: 120 120 23
Width: 550
Flags: W
HStem: 510.157 20G<95.4177 135.491 463.534 503.58>
LayerCount: 2
Fore
SplineSet
116.668945312 530.157226562 m 1
 298.930664062 336.493164062 l 1
 482.600585938 529.151367188 l 1
 515.219726562 498.055664062 l 1
 329.862304688 303.625976562 l 1
 511.217773438 110.924804688 l 1
 448.688476562 52.0771484375 l 1
 270.526367188 241.385742188 l 1
 86.0068359375 47.8369140625 l 1
 53.3896484375 78.9326171875 l 1
 239.594726562 274.250976562 l 1
 54.1396484375 471.309570312 l 1
 116.668945312 530.157226562 l 1
EndSplineSet
Validated: 1
EndChar

StartChar: y
Encoding: 121 121 24
Width: 1000
Flags: H
LayerCount: 2
Fore
SplineSet
709.669921875 542.00390625 m 1
 768.26953125 512.66015625 l 1
 768.26953125 512.66015625 595.5859375 151.666015625 540.569335938 44.2744140625 c 0
 485.552734375 -63.1162109375 469.673828125 -101.809570312 421.260742188 -137.970703125 c 0
 367.247070312 -178.315429688 230 -164 230 -164 c 1
 227.600585938 -101.004882812 l 1
 227.600585938 -101.004882812 331.021484375 -110.701171875 371.991210938 -84.876953125 c 0
 412.779296875 -59.1669921875 448.478515625 37.890625 448.478515625 37.890625 c 1
 228.044921875 488.1953125 l 1
 327.04296875 536.658203125 l 1
 514.86328125 152.9765625 l 1
 709.669921875 542.00390625 l 1
EndSplineSet
EndChar

StartChar: z
Encoding: 122 122 25
Width: 550
Flags: W
HStem: 53.2031 48.666<127.696 548.274> 480.367 48.6445<-0.204102 411.333>
LayerCount: 2
Fore
SplineSet
472.002929688 529.111328125 m 1
 472.083007812 529.01171875 l 1
 548.274414062 529.03515625 l 1
 548.291992188 480.41015625 l 1
 545.541992188 437.58203125 l 1
 127.696289062 101.869140625 l 1
 548.274414062 102 l 1
 548.291992188 53.375 l 1
 -0.2041015625 53.203125 l 1
 -0.2197265625 101.828125 l 1
 -0.1845703125 149.736328125 l 1
 411.333007812 480.3671875 l 1
 -0.2041015625 480.23828125 l 1
 -0.2197265625 528.86328125 l 1
 471.877929688 529.01171875 l 1
 472.002929688 529.111328125 l 1
EndSplineSet
Validated: 1
EndChar

StartChar: w
Encoding: 119 119 26
Width: 800
Flags: HW
LayerCount: 2
Fore
SplineSet
119.280273438 528.299804688 m 1
 315.420898438 136.103515625 l 1
 512.538085938 522.663085938 l 1
 566.1640625 529.7578125 l 1
 334.6640625 67.44921875 l 1
 233.645507812 52.16015625 l 1
 16.0400390625 505.29296875 l 1
 119.280273438 528.299804688 l 1
332.581054688 528.299804688 m 1
 528.721679688 136.103515625 l 1
 725.837890625 522.663085938 l 1
 779.463867188 529.7578125 l 1
 547.963867188 67.44921875 l 1
 446.9453125 52.16015625 l 1
 229.33984375 505.29296875 l 1
 332.581054688 528.299804688 l 1
EndSplineSet
EndChar

StartChar: acute
Encoding: 180 180 27
Width: 1000
Flags: H
LayerCount: 2
Fore
SplineSet
486.676757812 797.579101562 m 1
 541.497070312 767.10546875 l 1
 486.322265625 698.416992188 l 1
 452.728515625 714.405273438 l 1
 486.676757812 797.579101562 l 1
EndSplineSet
Validated: 1
EndChar

StartChar: uni02CA
Encoding: 714 714 28
Width: 1000
Flags: H
LayerCount: 2
Fore
SplineSet
486.676757812 797.579101562 m 1
 541.497070312 767.10546875 l 1
 486.322265625 698.416992188 l 1
 452.728515625 714.405273438 l 1
 486.676757812 797.579101562 l 1
EndSplineSet
Validated: 1
EndChar

StartChar: uni02CB
Encoding: 715 715 29
Width: 1000
Flags: H
LayerCount: 2
Fore
SplineSet
507.548828125 797.579101562 m 1
 541.497070312 714.405273438 l 1
 507.903320312 698.416992188 l 1
 452.728515625 767.10546875 l 1
 507.548828125 797.579101562 l 1
EndSplineSet
Validated: 1
EndChar

StartChar: grave
Encoding: 96 96 30
Width: 1000
Flags: H
LayerCount: 2
Fore
SplineSet
507.548828125 797.579101562 m 1
 541.497070312 714.405273438 l 1
 507.903320312 698.416992188 l 1
 452.728515625 767.10546875 l 1
 507.548828125 797.579101562 l 1
EndSplineSet
Validated: 1
EndChar

StartChar: A
Encoding: 65 65 31
Width: 650
Flags: HW
LayerCount: 2
Fore
SplineSet
395.520507812 694.353515625 m 1
 685.145507812 109.416015625 l 1
 564.534179688 49.697265625 l 1
 421.305664062 338.966796875 l 1
 195.520507812 338.966796875 l 1
 75.9697265625 52.298828125 l 1
 27.0595703125 72.697265625 l 1
 282.887695312 686.142578125 l 1
 395.520507812 694.353515625 l 1
298.747070312 586.4921875 m 1
 217.930664062 392.70703125 l 1
 394.696289062 392.70703125 l 1
 298.747070312 586.4921875 l 1
EndSplineSet
EndChar

StartChar: B
Encoding: 66 66 32
Width: 650
Flags: HW
LayerCount: 2
Fore
SplineSet
132.21875 695.689453125 m 2
 143.065429688 696.032226562 170.436523438 697.416992188 293.5390625 694.108398438 c 0
 416.642578125 690.799804688 506.645507812 628.232421875 506.645507812 545.44140625 c 0
 506.494140625 483.704101562 455.654296875 428.349609375 378.565429688 405.98828125 c 1
 508.97265625 397.17578125 608.447265625 321.060546875 608.469726562 230.072265625 c 0
 608.470703125 132.44140625 493.943359375 65.7900390625 353.911132812 53.294921875 c 0
 239.338867188 43.072265625 168.407226562 41.833984375 145.889648438 47.208984375 c 1
 13.4697265625 52.583984375 l 1
 13.4697265625 695.34765625 l 1
 132.21875 695.689453125 l 2
232.982421875 672.243164062 m 0
 151.528320312 673.0859375 135.4921875 672.813476562 121.372070312 672.34375 c 1
 121.372070312 432.56640625 l 1
 150.306640625 431.484375 186.124023438 431.321289062 230.874023438 432.3046875 c 0
 314.42578125 434.140625 382.194335938 486.123046875 382.194335938 552.51171875 c 0
 382.194335938 618.900390625 314.435546875 671.400390625 232.982421875 672.243164062 c 0
277.779296875 379.686523438 m 0
 175.017578125 392.322265625 121.372070312 392.453125 121.372070312 392.453125 c 1
 121.372070312 70.908203125 l 1
 155.9921875 67.5712890625 202.943359375 67.1240234375 266.229492188 70.265625 c 0
 381.681640625 75.9970703125 475.534179688 140.547851562 475.534179688 227.244140625 c 0
 475.534179688 313.940429688 380.541992188 367.051757812 277.779296875 379.686523438 c 0
EndSplineSet
EndChar

StartChar: C
Encoding: 67 67 33
Width: 650
Flags: HW
LayerCount: 2
Fore
SplineSet
424.577148438 698.17578125 m 0
 505.240234375 698.159179688 580.838867188 679.000976562 643.961914062 646.359375 c 1
 643.961914062 646.359375 565.985351562 631.198242188 566.295898438 631.015625 c 1
 524.325195312 653.869140625 475.817382812 667.057617188 424.577148438 667.064453125 c 0
 262.203125 667.064453125 130.375 536.524414062 130.375 375.736328125 c 0
 130.375 214.948242188 262.203125 84.408203125 424.577148438 84.408203125 c 0
 467.134765625 84.4482421875 507.830078125 93.6025390625 544.35546875 109.76953125 c 1
 544.35546875 109.76953125 631.486328125 96.0517578125 631.919921875 96.2578125 c 1
 571.368164062 67.314453125 500.163085938 50.4716796875 424.577148438 50.466796875 c 0
 201.3125 50.466796875 20.0498046875 195.58203125 20.0498046875 374.322265625 c 0
 20.05078125 553.061523438 201.313476562 698.17578125 424.577148438 698.17578125 c 0
EndSplineSet
EndChar

StartChar: D
Encoding: 68 68 34
Width: 800
Flags: HW
LayerCount: 2
Fore
SplineSet
131.928710938 696.0546875 m 2
 395.715820312 696.819335938 769.923828125 744.676757812 771.153320312 377.150390625 c 0
 768.907226562 47.8251953125 424.557617188 48.5771484375 131.928710938 53.294921875 c 1
 21.6201171875 53.294921875 l 1
 21.6201171875 696.0546875 l 1
 131.928710938 696.0546875 l 2
131.928710938 667.064453125 m 1
 131.928710938 91.478515625 l 1
 360.115234375 91.478515625 658.669921875 62.6435546875 669.329101562 378.552734375 c 1
 645.916992188 700.931640625 383.118164062 675.755859375 131.928710938 667.064453125 c 1
EndSplineSet
EndChar

StartChar: E
Encoding: 69 69 35
Width: 650
Flags: HW
LayerCount: 2
Fore
SplineSet
71.0703125 695.34765625 m 1
 588.673828125 695.34765625 l 1
 588.673828125 652.921875 l 1
 170.06640625 652.921875 l 1
 170.06640625 415.84765625 l 1
 588.673828125 415.84765625 l 1
 588.673828125 373.421875 l 1
 170.06640625 373.421875 l 1
 170.06640625 95.548828125 l 1
 588.673828125 95.548828125 l 1
 588.673828125 53.12109375 l 1
 71.0703125 50.466796875 l 1
 71.0703125 695.34765625 l 1
EndSplineSet
EndChar

StartChar: F
Encoding: 70 70 36
Width: 650
Flags: HW
LayerCount: 2
Fore
SplineSet
71.0703125 695.34765625 m 1
 588.673828125 695.34765625 l 1
 588.673828125 652.921875 l 1
 170.06640625 652.921875 l 1
 170.06640625 415.84765625 l 1
 588.673828125 415.84765625 l 1
 588.673828125 373.421875 l 1
 170.06640625 373.421875 l 1
 170.06640625 50.466796875 l 1
 71.0703125 50.466796875 l 1
 71.0703125 695.34765625 l 1
EndSplineSet
EndChar

StartChar: G
Encoding: 71 71 37
Width: 650
Flags: HW
LayerCount: 2
Fore
SplineSet
424.577148438 698.17578125 m 0
 502.408203125 698.159179688 578.581054688 680.16796875 643.959960938 646.359375 c 1
 566.295898438 631.015625 l 1
 522.875976562 654.658203125 474.12890625 667.057617188 424.577148438 667.064453125 c 0
 262.09375 667.064453125 130.374023438 536.6328125 130.374023438 375.736328125 c 0
 130.374023438 214.83984375 262.09375 84.408203125 424.577148438 84.408203125 c 0
 488.45703125 84.7236328125 540.141601562 107.03515625 532.104492188 107.03515625 c 1
 532.104492188 378.564453125 l 1
 642.959960938 378.564453125 l 1
 642.959960938 92.1015625 l 1
 642.959960938 92.1015625 497.5859375 50.4716796875 424.577148438 50.466796875 c 0
 201.162109375 50.466796875 20.0498046875 195.461914062 20.0498046875 374.322265625 c 0
 20.05078125 553.181640625 201.163085938 698.17578125 424.577148438 698.17578125 c 0
EndSplineSet
EndChar

StartChar: H
Encoding: 72 72 38
Width: 650
Flags: HW
LayerCount: 2
Fore
SplineSet
71.0703125 695.34765625 m 1
 170.06640625 695.34765625 l 1
 170.06640625 415.84765625 l 1
 486.271484375 415.84765625 l 1
 486.271484375 695.34765625 l 1
 585.265625 695.34765625 l 1
 585.265625 50.466796875 l 1
 486.271484375 50.466796875 l 1
 486.271484375 373.421875 l 1
 170.06640625 373.421875 l 1
 170.06640625 50.466796875 l 1
 71.0703125 50.466796875 l 1
 71.0703125 695.34765625 l 1
EndSplineSet
EndChar

StartChar: I
Encoding: 73 73 39
Width: 200
Flags: HW
LayerCount: 2
Fore
SplineSet
48.1396484375 695.702148438 m 1
 152.045898438 695.702148438 l 1
 152.045898438 54.6875 l 1
 48.1396484375 54.6875 l 1
 48.1396484375 695.702148438 l 1
EndSplineSet
EndChar

StartChar: J
Encoding: 74 74 40
Width: 200
Flags: HW
LayerCount: 2
Fore
SplineSet
48.134765625 695.703125 m 1
 152.041015625 695.703125 l 1
 152.041015625 530.419921875 l 1
 152.279296875 530.419921875 l 1
 152.279296875 57.763671875 l 1
 152.041015625 57.763671875 l 1
 152.041015625 54.6875 l 1
 151.544921875 54.6875 l 1
 149.435546875 -72.8505859375 58.23046875 -161.125 -58.6796875 -161.37109375 c 0
 -77.576171875 -161.411132812 -94.583984375 -160.958984375 -110.3203125 -159.890625 c 1
 -110.3203125 -118.11328125 l 1
 -95.7626953125 -120.362304688 -81.970703125 -120.053710938 -70.23046875 -119.671875 c 0
 26.1044921875 -107.256835938 47.224609375 -11.521484375 48.29296875 54.6875 c 1
 48.134765625 54.6875 l 1
 48.134765625 695.703125 l 1
EndSplineSet
EndChar

StartChar: K
Encoding: 75 75 41
Width: 650
Flags: HW
LayerCount: 2
Fore
SplineSet
518.23046875 697.38671875 m 1
 543.611328125 662.71484375 l 1
 184.345703125 399.73828125 l 1
 545.015625 117.537109375 l 1
 489.625 46.74609375 l 1
 170.06640625 296.783203125 l 1
 170.06640625 50.466796875 l 1
 71.0703125 50.466796875 l 1
 71.0703125 695.34765625 l 1
 170.06640625 695.34765625 l 1
 170.06640625 442.53515625 l 1
 518.23046875 697.38671875 l 1
EndSplineSet
EndChar

StartChar: L
Encoding: 76 76 42
Width: 650
Flags: HW
LayerCount: 2
Fore
SplineSet
71.0703125 695.34765625 m 1
 170.06640625 695.34765625 l 1
 170.06640625 95.548828125 l 1
 588.673828125 95.548828125 l 1
 588.673828125 53.12109375 l 1
 170.06640625 53.12109375 l 1
 170.06640625 50.466796875 l 1
 71.0703125 50.466796875 l 1
 71.0703125 695.34765625 l 1
EndSplineSet
EndChar

StartChar: M
Encoding: 77 77 43
Width: 800
Flags: HW
LayerCount: 2
Fore
SplineSet
33.150390625 689.34765625 m 1
 128.14453125 695.34765625 l 1
 441.77734375 162.916015625 l 1
 671.849609375 695.34765625 l 1
 770.845703125 695.34765625 l 1
 770.845703125 50.466796875 l 1
 671.849609375 50.466796875 l 1
 671.849609375 549.216796875 l 1
 474.689453125 101.47265625 l 1
 383.943359375 61.845703125 l 1
 128.14453125 493.015625 l 1
 128.14453125 50.466796875 l 1
 29.150390625 50.466796875 l 1
 33.150390625 689.34765625 l 1
EndSplineSet
EndChar

StartChar: N
Encoding: 78 78 44
Width: 650
Flags: HW
LayerCount: 2
Fore
SplineSet
71.0703125 695.34765625 m 1
 83.869140625 695.34765625 l 1
 121.17578125 695.34765625 l 1
 121.49609375 695.0078125 l 1
 489.271484375 304.203125 l 1
 489.271484375 695.34765625 l 1
 588.265625 695.34765625 l 1
 588.265625 199.009765625 l 1
 588.265625 50.466796875 l 1
 583.88671875 50.466796875 l 1
 489.271484375 151.0078125 l 1
 121.49609375 541.8125 l 1
 121.49609375 50.466796875 l 1
 71.0703125 50.466796875 l 1
 71.0703125 595.39453125 l 1
 71.0703125 683.302734375 l 1
 71.0703125 695.34765625 l 1
EndSplineSet
EndChar

StartChar: O
Encoding: 79 79 45
Width: 800
Flags: HW
LayerCount: 2
Fore
SplineSet
397.801757812 698.17578125 m 0
 603.860351562 698.17578125 771.154296875 553.061523438 771.155273438 374.322265625 c 0
 771.155273438 195.58203125 603.860351562 50.466796875 397.801757812 50.466796875 c 0
 191.743164062 50.466796875 24.4501953125 195.58203125 24.4501953125 374.322265625 c 0
 24.451171875 553.061523438 191.744140625 698.17578125 397.801757812 698.17578125 c 0
397.801757812 667.064453125 m 0
 247.940429688 667.064453125 126.272460938 536.524414062 126.272460938 375.736328125 c 0
 126.272460938 214.948242188 247.940429688 84.408203125 397.801757812 84.408203125 c 0
 547.663085938 84.408203125 669.331054688 214.948242188 669.331054688 375.736328125 c 0
 669.331054688 536.524414062 547.663085938 667.064453125 397.801757812 667.064453125 c 0
EndSplineSet
EndChar

StartChar: P
Encoding: 80 80 46
Width: 650
Flags: HW
LayerCount: 2
Fore
SplineSet
71.0703125 695.34765625 m 1
 71.0703125 695.34765625 145.158203125 698.079101562 383.5625 696.3828125 c 0
 495.330078125 695.587890625 585.94140625 607.94921875 585.94140625 498.861328125 c 0
 585.94140625 389.7734375 495.333007812 301.33984375 383.5625 301.33984375 c 0
 283.756835938 301.33984375 215.86328125 302.322265625 170.06640625 306.18359375 c 1
 170.06640625 50.466796875 l 1
 71.0703125 50.466796875 l 1
 71.0703125 695.34765625 l 1
315.564453125 651.048828125 m 0
 251.262695312 652.930664062 170.06640625 649.888671875 170.06640625 649.888671875 c 1
 170.06640625 353.0234375 l 1
 201.120117188 348.239257812 246.950195312 347.706054688 315.564453125 346.671875 c 0
 404.076171875 345.337890625 475.84765625 414.809570312 475.84765625 498.861328125 c 0
 475.84765625 582.913085938 404.048828125 648.458984375 315.564453125 651.048828125 c 0
EndSplineSet
EndChar

StartChar: Q
Encoding: 81 81 47
Width: 1000
Flags: H
LayerCount: 2
Fore
SplineSet
497.802734375 698.17578125 m 0
 703.861328125 698.17578125 871.155273438 553.061523438 871.15625 374.322265625 c 0
 871.125976562 231.662109375 764.594726562 110.516601562 616.779296875 67.41015625 c 1
 710.1484375 -79.130859375 l 1
 626.4140625 -132.482421875 l 1
 510.599609375 49.287109375 l 1
 510.599609375 49.287109375 513.1640625 50.783203125 512.94140625 50.779296875 c 0
 507.846679688 50.583984375 502.948242188 50.482421875 497.802734375 50.466796875 c 0
 291.744140625 50.466796875 124.451171875 195.58203125 124.451171875 374.322265625 c 0
 124.452148438 553.061523438 291.745117188 698.17578125 497.802734375 698.17578125 c 0
497.802734375 667.064453125 m 0
 347.94140625 667.064453125 226.2734375 536.524414062 226.2734375 375.736328125 c 0
 226.2734375 214.948242188 347.94140625 84.408203125 497.802734375 84.408203125 c 0
 647.6640625 84.408203125 769.33203125 214.948242188 769.33203125 375.736328125 c 0
 769.33203125 536.524414062 647.6640625 667.064453125 497.802734375 667.064453125 c 0
EndSplineSet
EndChar

StartChar: R
Encoding: 82 82 48
Width: 650
Flags: HW
LayerCount: 2
Fore
SplineSet
71.0703125 695.34765625 m 1
 78.68359375 695.602539062 157.282226562 697.993164062 383.5625 696.3828125 c 0
 495.330078125 695.587890625 585.94140625 607.94921875 585.94140625 498.861328125 c 0
 585.94140625 419.920898438 538.479492188 351.82421875 469.900390625 320.19921875 c 1
 606.384765625 105.990234375 l 1
 517.470703125 49.337890625 l 1
 356.853515625 301.421875 l 1
 272.197265625 301.609375 211.432617188 302.6953125 170.06640625 306.18359375 c 1
 170.06640625 50.466796875 l 1
 71.0703125 50.466796875 l 1
 71.0703125 695.34765625 l 1
315.564453125 651.048828125 m 0
 269.4609375 652.3984375 207.698242188 651.248046875 170.06640625 649.888671875 c 1
 170.06640625 353.0234375 l 1
 201.120117188 348.239257812 246.950195312 347.706054688 315.564453125 346.671875 c 0
 395.971679688 345.459960938 475.84765625 408.110351562 475.84765625 498.861328125 c 0
 475.84765625 582.912109375 404.048828125 648.458984375 315.564453125 651.048828125 c 0
EndSplineSet
EndChar

StartChar: S
Encoding: 83 83 49
Width: 1000
Flags: H
LayerCount: 2
Fore
SplineSet
501.130859375 689.918945312 m 0
 678.065429688 688.243164062 763.333007812 617.987304688 763.333007812 617.987304688 c 1
 730.563476562 564.150390625 l 1
 730.563476562 564.150390625 674.37890625 663 504.279296875 652.390625 c 0
 364.086914062 643.646484375 338.482421875 578.140625 342.836914062 542.458984375 c 0
 347.098632812 507.533203125 394.486328125 485.34765625 515.556640625 475.497070312 c 0
 636.627929688 465.645507812 775.154296875 391.400390625 772.485351562 261.741210938 c 0
 769.629882812 122.969726562 658.262695312 50.5078125 477.366210938 50.5078125 c 0
 260.989257812 46.208984375 213.575195312 129.045898438 213.575195312 129.045898438 c 1
 247.701171875 216.924804688 l 1
 247.701171875 216.924804688 272.92578125 124.297851562 466.228515625 103.016601562 c 0
 545.633789062 94.2744140625 629.877929688 132.955078125 624.698242188 214.021484375 c 0
 619.518554688 295.086914062 545.86328125 317.780273438 473.491210938 326.55078125 c 0
 357.927734375 335.321289062 229.591796875 391.220703125 231.719726562 512.669921875 c 0
 234.395507812 665.349609375 359.127929688 691.262695312 501.130859375 689.918945312 c 0
EndSplineSet
EndChar

StartChar: T
Encoding: 84 84 50
Width: 650
Flags: HW
LayerCount: 2
Fore
SplineSet
61.240234375 695.34765625 m 1
 588.673828125 695.34765625 l 1
 588.673828125 652.921875 l 1
 377.041015625 652.921875 l 1
 377.041015625 54.6875 l 1
 273.134765625 54.6875 l 1
 273.134765625 652.921875 l 1
 61.240234375 652.921875 l 1
 61.240234375 695.34765625 l 1
EndSplineSet
EndChar

StartChar: U
Encoding: 85 85 51
Width: 650
Flags: HW
LayerCount: 2
Fore
SplineSet
173.877929688 698.2734375 m 0
 173.931640625 699.008789062 173.943359375 509.096679688 173.877929688 440.23046875 c 0
 170.490234375 167.890625 185.073242188 90.767578125 334.819335938 95.455078125 c 0
 390.5390625 97.19921875 447.188476562 106.40625 488.049804688 127.41796875 c 1
 488.049804688 695.7265625 l 1
 590.165039062 695.7265625 l 1
 590.165039062 80.86328125 l 1
 487.774414062 80.86328125 l 1
 437.826171875 61.3994140625 383.219726562 53.70703125 329.389648438 53.69140625 c 0
 148.116210938 53.69140625 68.15625 124.252929688 70.8349609375 246.166015625 c 2
 70.8349609375 695.86328125 l 1
 173.168945312 695.86328125 l 1
 173.168945312 485.522460938 173.715820312 696.06640625 173.877929688 698.2734375 c 0
EndSplineSet
EndChar

StartChar: V
Encoding: 86 86 52
Width: 800
Flags: HW
LayerCount: 2
Fore
SplineSet
121.720703125 696.884765625 m 1
 438.50390625 162.916015625 l 1
 671.912109375 692.97265625 l 1
 722.138671875 670.85546875 l 1
 471.416015625 101.47265625 l 1
 380.669921875 61.845703125 l 1
 34.58984375 645.193359375 l 1
 121.720703125 696.884765625 l 1
EndSplineSet
EndChar

StartChar: W
Encoding: 87 87 53
Width: 950
Flags: HW
LayerCount: 2
Fore
SplineSet
92.62109375 696.884765625 m 1
 409.404296875 162.916015625 l 1
 469.306640625 298.94921875 l 1
 263.890625 645.193359375 l 1
 351.021484375 696.884765625 l 1
 519.490234375 412.9140625 l 1
 642.8125 692.97265625 l 1
 693.0390625 670.85546875 l 1
 553.91015625 354.896484375 l 1
 667.8046875 162.916015625 l 1
 901.212890625 692.97265625 l 1
 951.439453125 670.85546875 l 1
 700.716796875 101.47265625 l 1
 609.970703125 61.845703125 l 1
 503.7265625 240.931640625 l 1
 442.31640625 101.47265625 l 1
 351.5703125 61.845703125 l 1
 5.490234375 645.193359375 l 1
 92.62109375 696.884765625 l 1
EndSplineSet
EndChar

StartChar: X
Encoding: 88 88 54
Width: 800
Flags: HW
LayerCount: 2
Fore
SplineSet
107.1953125 701.8125 m 1
 423.392578125 442.759765625 l 1
 727.33203125 699.830078125 l 1
 772.78515625 646.08984375 l 1
 478.755859375 397.400390625 l 1
 770.50390625 158.376953125 l 1
 686.158203125 55.42578125 l 1
 375.423828125 310.00390625 l 1
 76.62890625 57.28515625 l 1
 31.17578125 111.025390625 l 1
 320.060546875 355.36328125 l 1
 22.849609375 598.861328125 l 1
 107.1953125 701.8125 l 1
EndSplineSet
EndChar

StartChar: Y
Encoding: 89 89 55
Width: 650
Flags: HW
LayerCount: 2
Fore
SplineSet
603.163085938 694.857421875 m 1
 376.948242188 243.103515625 l 1
 377.038085938 54.6875 l 1
 273.131835938 54.6875 l 1
 273.051757812 222.708984375 l 1
 53.0400390625 670.392578125 l 1
 156.280273438 693.3984375 l 1
 352.420898438 301.203125 l 1
 549.538085938 687.76171875 l 1
 603.163085938 694.857421875 l 1
EndSplineSet
EndChar

StartChar: Z
Encoding: 90 90 56
Width: 800
Flags: HW
LayerCount: 2
Fore
SplineSet
23.3896484375 695.34765625 m 1
 779.360351562 695.34765625 l 1
 779.360351562 600.8828125 l 1
 150.399414062 95.548828125 l 1
 779.360351562 95.548828125 l 1
 779.360351562 46.751953125 l 1
 23.3896484375 46.751953125 l 1
 23.3896484375 147.4765625 l 1
 644.561523438 646.552734375 l 1
 23.3896484375 646.552734375 l 1
 23.3896484375 695.34765625 l 1
EndSplineSet
EndChar

StartChar: asciitilde
Encoding: 126 126 57
Width: 1000
Flags: H
LayerCount: 2
Fore
SplineSet
299.813476562 737.774414062 m 1
 375.23828125 875.044921875 589.529296875 708.0234375 690.135742188 794.342773438 c 1
 690.135742188 751.916992188 l 1
 620.926757812 610.522460938 403.990234375 794.985351562 299.813476562 695.348632812 c 1
 299.813476562 737.774414062 l 1
EndSplineSet
EndChar

StartChar: zero
Encoding: 48 48 58
Width: 1000
Flags: H
LayerCount: 2
Fore
SplineSet
503.506835938 698.17578125 m 0
 645.684570312 698.176757812 760.942382812 553.182617188 760.943359375 374.322265625 c 0
 760.943359375 195.461914062 645.684570312 50.4658203125 503.506835938 50.466796875 c 0
 361.329101562 50.466796875 246.071289062 195.461914062 246.072265625 374.322265625 c 0
 246.072265625 553.181640625 361.330078125 698.17578125 503.506835938 698.17578125 c 0
503.506835938 667.064453125 m 0
 400.104492188 667.064453125 346.28125 536.6328125 346.28125 375.736328125 c 0
 346.28125 214.83984375 400.104492188 84.408203125 503.506835938 84.408203125 c 0
 606.909179688 84.408203125 655.733398438 214.83984375 655.733398438 375.736328125 c 0
 655.733398438 536.6328125 606.909179688 667.064453125 503.506835938 667.064453125 c 0
EndSplineSet
EndChar

StartChar: one
Encoding: 49 49 59
Width: 1000
Flags: H
LayerCount: 2
Fore
SplineSet
554.4765625 697.85546875 m 1
 554.4765625 52.583984375 l 1
 446.57421875 52.583984375 l 1
 446.57421875 649.845703125 l 1
 273.994140625 627.373046875 l 1
 269.58984375 661.19921875 l 1
 554.4765625 697.85546875 l 1
EndSplineSet
EndChar

StartChar: two
Encoding: 50 50 60
Width: 1000
Flags: H
LayerCount: 2
Fore
SplineSet
500 698.17578125 m 0
 608.764648438 697.356445312 754.530273438 655.145507812 751.395507812 487.107421875 c 0
 748.264648438 319.283203125 434.765625 95.548828125 434.765625 95.548828125 c 1
 760.943359375 95.548828125 l 1
 760.943359375 53.12109375 l 1
 246.072265625 53.12109375 l 1
 246.072265625 95.548828125 l 1
 246.072265625 95.548828125 654.893554688 298.375 659.829101562 488.521484375 c 0
 662.465820312 590.099609375 602.754882812 665.705078125 475 667.064453125 c 0
 376.8046875 668.109375 313.1875 642.5234375 287.341796875 601.642578125 c 1
 243.224609375 637.1875 l 1
 285.51953125 675.5234375 368.495117188 699.166015625 500 698.17578125 c 0
EndSplineSet
EndChar

StartChar: three
Encoding: 51 51 61
Width: 1000
Flags: H
LayerCount: 2
Fore
SplineSet
503.505859375 698.17578125 m 0
 642.170898438 700.450195312 725.547851562 650.663085938 727.588867188 546.940429688 c 0
 729.630859375 443.21875 630.853515625 395.7890625 630.853515625 395.7890625 c 1
 630.853515625 395.7890625 748.961914062 376.13671875 745.006835938 239.34765625 c 0
 741.051757812 102.55859375 656.764648438 52.740234375 503.505859375 50.466796875 c 0
 429.165039062 49.3642578125 362.212890625 90.16796875 315.21875 153.576171875 c 1
 395.056640625 153.576171875 l 1
 421.080078125 110.46484375 457.345703125 83.4091796875 503.505859375 84.408203125 c 0
 652.029296875 87.6240234375 675.013671875 253.126953125 616.577148438 316.163085938 c 0
 564.413085938 372.432617188 456.677734375 361.5390625 456.677734375 361.5390625 c 1
 456.677734375 411.939453125 l 1
 456.677734375 411.939453125 564.172851562 403.895507812 612.072265625 454.099609375 c 0
 667.076171875 511.75 654.1015625 671.310546875 503.505859375 667.064453125 c 0
 470.026367188 666.120117188 437.044921875 650.940429688 413.1484375 623.1171875 c 1
 338.740234375 623.1171875 l 1
 383.388671875 669.962890625 440.829101562 697.147460938 503.505859375 698.17578125 c 0
EndSplineSet
EndChar

StartChar: four
Encoding: 52 52 62
Width: 1000
Flags: H
LayerCount: 2
Fore
SplineSet
680.193359375 697.0859375 m 1
 680.193359375 324.025390625 l 1
 771.849609375 324.025390625 l 1
 771.849609375 259.705078125 l 1
 680.04296875 259.705078125 l 1
 680.04296875 50.662109375 l 1
 581.048828125 50.662109375 l 1
 581.048828125 259.705078125 l 1
 269.205078125 259.705078125 l 1
 269.205078125 322.880859375 l 1
 680.193359375 697.0859375 l 1
580.916015625 536.4453125 m 1
 334.46875 324.830078125 l 1
 580.916015625 324.830078125 l 1
 580.916015625 536.4453125 l 1
EndSplineSet
EndChar

StartChar: five
Encoding: 53 53 63
Width: 1000
Flags: H
LayerCount: 2
Fore
SplineSet
267.91796875 693.740234375 m 1
 690.189453125 695.34765625 l 1
 690.189453125 585.97265625 l 1
 381.17578125 585.97265625 l 1
 381.17578125 471.943359375 l 1
 408.541015625 480.236328125 437.311523438 484.58984375 466.326171875 484.828125 c 0
 611.971679688 484.828125 730.041015625 383.317382812 730.041015625 258.09765625 c 0
 730.041015625 132.877929688 611.971679688 31.3671875 466.326171875 31.3671875 c 0
 387.63671875 31.623046875 313.19140625 62.0771484375 263.32421875 114.412109375 c 1
 263.32421875 201.666015625 l 1
 288.69921875 143.360351562 348.514648438 105.337890625 414.869140625 105.3359375 c 0
 505.453125 105.3359375 578.885742188 175.168945312 578.88671875 261.3125 c 0
 578.88671875 347.45703125 505.454101562 417.291015625 414.869140625 417.291015625 c 0
 348.515625 417.2890625 288.700195312 379.268554688 263.32421875 320.96484375 c 1
 267.91796875 693.740234375 l 1
EndSplineSet
EndChar

StartChar: six
Encoding: 54 54 64
Width: 1000
Flags: H
LayerCount: 2
Fore
SplineSet
534.8828125 696.713867188 m 0
 595.340820312 697.16015625 704.991210938 695.2421875 739.689453125 654.576171875 c 1
 739.689453125 591.623046875 l 1
 673.639648438 652.500976562 543.112304688 706.049804688 458.024414062 660.2421875 c 0
 365.03515625 610.181640625 350.829101562 447.943359375 351.137695312 361.9921875 c 1
 351.137695312 361.9921875 378.880859375 435.254882812 482.169921875 453.420898438 c 0
 589.432617188 472.287109375 748.61328125 368.328125 752.208984375 257.098632812 c 0
 755.69140625 149.375 674.059570312 53.0166015625 503.505859375 50.466796875 c 0
 322.944335938 47.767578125 246.072265625 195.462890625 246.072265625 374.322265625 c 0
 246.072265625 453.102539062 255.046875 694.650390625 534.8828125 696.713867188 c 0
345.536132812 258.923828125 m 0
 344.154296875 167.068359375 423.838867188 86.3974609375 501.231445312 86.6826171875 c 0
 573.040039062 86.9462890625 644.708007812 175.745117188 644.510742188 247.553710938 c 0
 644.321289062 316.918945312 574.524414062 398.497070312 505.256835938 402.19140625 c 0
 433.838867188 406 347.02734375 358.002929688 345.536132812 258.923828125 c 0
EndSplineSet
EndChar

StartChar: seven
Encoding: 55 55 65
Width: 1000
Flags: H
LayerCount: 2
Fore
SplineSet
275.40625 695.34765625 m 1
 741.275390625 695.34765625 l 1
 741.275390625 634.72265625 l 1
 390.126953125 50.662109375 l 1
 278.513671875 50.662109375 l 1
 620.646484375 636.001953125 l 1
 275.40625 636.001953125 l 1
 275.40625 695.34765625 l 1
EndSplineSet
EndChar

StartChar: eight
Encoding: 56 56 66
Width: 1000
Flags: H
LayerCount: 2
Fore
SplineSet
513.923828125 702.208984375 m 0
 608.600585938 702.208984375 685.466796875 632.532226562 685.466796875 546.7109375 c 0
 685.44921875 483.072265625 643.297851562 428.391601562 582.83203125 404.349609375 c 1
 651.859375 377.030273438 700.311523438 312.358398438 700.314453125 236.908203125 c 0
 700.314453125 136.797851562 614.796875 55.51953125 509.462890625 55.51953125 c 0
 404.12890625 55.51953125 318.611328125 136.797851562 318.611328125 236.908203125 c 0
 318.830078125 314.057617188 369.743164062 379.888671875 441.408203125 405.884765625 c 1
 382.883789062 430.630859375 342.424804688 484.36328125 342.3828125 546.7109375 c 0
 342.3828125 632.532226562 419.248046875 702.208984375 513.923828125 702.208984375 c 0
509.37109375 680.439453125 m 0
 457.424804688 680.439453125 415.25 623.303710938 415.25 552.9296875 c 0
 415.25 482.556640625 457.424804688 425.421875 509.37109375 425.421875 c 0
 561.31640625 425.422851562 603.490234375 482.556640625 603.490234375 552.9296875 c 0
 603.490234375 623.302734375 561.317382812 680.438476562 509.37109375 680.439453125 c 0
498.1953125 392.232421875 m 0
 435.11328125 386.748046875 385.05078125 318.578125 384.857421875 235.33203125 c 0
 384.857421875 148.279296875 439.278320312 77.603515625 506.30859375 77.603515625 c 0
 573.338867188 77.603515625 627.759765625 148.279296875 627.759765625 235.33203125 c 0
 627.662109375 315.10546875 581.741210938 381.08203125 522.455078125 391.41015625 c 0
 519.588867188 391.278320312 516.826171875 391.212890625 513.923828125 391.2109375 c 0
 508.58203125 391.334960938 503.405273438 391.674804688 498.1953125 392.232421875 c 0
EndSplineSet
EndChar

StartChar: nine
Encoding: 57 57 67
Width: 1000
Flags: H
LayerCount: 2
Fore
SplineSet
463.504882812 50.4775390625 m 0
 403.046875 50.03125 293.397460938 51.94921875 258.698242188 92.615234375 c 1
 258.698242188 155.568359375 l 1
 324.749023438 94.689453125 455.276367188 41.1416015625 540.36328125 86.94921875 c 0
 633.352539062 137.009765625 647.55859375 299.248046875 647.25 385.198242188 c 1
 647.25 385.198242188 619.506835938 311.936523438 516.217773438 293.770507812 c 0
 408.955078125 274.904296875 249.775390625 378.86328125 246.178710938 490.092773438 c 0
 242.696289062 597.81640625 324.328125 694.174804688 494.881835938 696.724609375 c 0
 675.443359375 699.423828125 752.315429688 551.728515625 752.315429688 372.869140625 c 0
 752.315429688 294.088867188 743.340820312 52.541015625 463.504882812 50.4775390625 c 0
652.8515625 488.267578125 m 0
 654.234375 580.123046875 574.549804688 660.793945312 497.15625 660.508789062 c 0
 425.34765625 660.245117188 353.6796875 571.446289062 353.876953125 499.637695312 c 0
 354.06640625 430.272460938 423.86328125 348.694335938 493.130859375 345 c 0
 564.549804688 341.19140625 651.360351562 389.188476562 652.8515625 488.267578125 c 0
EndSplineSet
EndChar
